<svg xmlns="http://www.w3.org/2000/svg" version="1.1" xmlns:xlink="http://www.w3.org/1999/xlink" xmlns:svgjs="http://svgjs.dev/svgjs" width="1000" height="401" viewBox="0 0 1000 401"><g transform="matrix(1,0,0,1,-0.6060606060606233,0.5269338561692223)"><svg viewBox="0 0 396 159" data-background-color="#ffffff" preserveAspectRatio="xMidYMid meet" height="401" width="1000" xmlns="http://www.w3.org/2000/svg" xmlns:xlink="http://www.w3.org/1999/xlink"><g id="tight-bounds" transform="matrix(1,0,0,1,0.2400000000000091,-0.20893387314440304)"><svg viewBox="0 0 395.52 159.4178677462888" height="159.4178677462888" width="395.52"><g><svg viewBox="0 0 395.52 159.4178677462888" height="159.4178677462888" width="395.52"><g><svg viewBox="0 0 395.52 159.4178677462888" height="159.4178677462888" width="395.52"><g id="textblocktransform"><svg viewBox="0 0 395.52 159.4178677462888" height="159.4178677462888" width="395.52" id="textblock"><g><svg viewBox="0 0 395.52 159.4178677462888" height="159.4178677462888" width="395.52"><g transform="matrix(1,0,0,1,0,0)"><svg width="395.52" viewBox="0.7 -33.7 111.14 44.80000000000001" height="159.4178677462888" data-palette-color="#bb84e8"><path d="M0.7 11.1L0.7 2.9 2.9 2.9 2.9-19.6 0.7-19.6 0.7-27.8 14.4-27.8 14.4-24.4Q15.65-26 17.63-27.25 19.6-28.5 22.15-28.5L22.15-28.5Q27.25-28.5 29.83-24.7 32.4-20.9 32.4-13.9L32.4-13.9Q32.4-6.9 29.83-3.1 27.25 0.7 22.15 0.7L22.15 0.7Q19.6 0.7 17.63-0.55 15.65-1.8 14.4-3.4L14.4-3.4 14.4 2.9 17.85 2.9 17.85 11.1 0.7 11.1ZM17.3-8.2Q18.75-8.2 19.48-8.97 20.2-9.75 20.2-11.4L20.2-11.4 20.2-16.4Q20.2-18.05 19.48-18.82 18.75-19.6 17.3-19.6L17.3-19.6Q15.85-19.6 15.13-18.82 14.4-18.05 14.4-16.4L14.4-16.4 14.4-11.4Q14.4-9.75 15.13-8.97 15.85-8.2 17.3-8.2L17.3-8.2ZM55.15-28.5Q56.15-28.5 57.05-28.3 57.95-28.1 58.55-27.8L58.55-27.8 58.55-18.25Q56.5-19.1 54.15-19.1L54.15-19.1Q51-19.1 49.3-17.45 47.6-15.8 47.6-12.55L47.6-12.55 47.6-8.2 52.1-8.2 52.1 0 33.9 0 33.9-8.2 36.1-8.2 36.1-19.6 33.9-19.6 33.9-27.8 47.6-27.8 47.6-24.15Q49-26.25 50.8-27.38 52.6-28.5 55.15-28.5L55.15-28.5ZM87.09-8.2L89.3-8.2 89.3 0 76.09 0 76.09-3.4Q75-1.8 73.02-0.55 71.05 0.7 68.2 0.7L68.2 0.7Q64.45 0.7 62.3-1.3 60.15-3.3 60.15-6.95L60.15-6.95Q60.15-16.4 76.2-16.65L76.2-16.65Q76.05-18.35 74.9-18.98 73.75-19.6 71-19.6L71-19.6Q68.75-19.6 66.17-19.13 63.6-18.65 61.45-17.85L61.45-17.85 61.45-27.05Q64.09-27.7 67.2-28.1 70.3-28.5 73.25-28.5L73.25-28.5Q80.7-28.5 83.9-25.8 87.09-23.1 87.09-17.45L87.09-17.45 87.09-8.2ZM76.09-11.4L76.09-11.7Q73.84-11.7 72.62-11.1 71.4-10.5 71.4-9.1L71.4-9.1Q71.4-8.25 71.92-7.73 72.45-7.2 73.4-7.2L73.4-7.2Q74.7-7.2 75.4-8.3 76.09-9.4 76.09-11.4L76.09-11.4ZM103.24 0.7Q97.94 0.7 95.27-1.88 92.59-4.45 92.59-10.55L92.59-10.55 92.59-19.6 90.39-19.6 90.39-27.8Q92.29-27.8 93.24-28.78 94.19-29.75 94.19-31.45L94.19-31.45 94.19-33.7 104.79-33.7 104.79-27.8 111.54-27.8 111.54-19.6 104.79-19.6 104.79-11.4Q104.79-9.75 105.52-8.97 106.24-8.2 107.69-8.2L107.69-8.2Q109.59-8.2 111.84-8.65L111.84-8.65 111.84-0.8Q110.44-0.25 108.07 0.23 105.69 0.7 103.24 0.7L103.24 0.7Z" opacity="1" transform="matrix(1,0,0,1,0,0)" fill="#bb84e8" class="undefined-text-0" data-fill-palette-color="primary" id="text-0"></path></svg></g></svg></g></svg></g></svg></g></svg></g><defs></defs></svg><rect width="395.52" height="159.4178677462888" fill="none" stroke="none" visibility="hidden"></rect></g></svg></g></svg>